<svg xmlns="http://www.w3.org/2000/svg" xmlns:xlink="http://www.w3.org/1999/xlink" viewBox="0 0 120 120"><defs><style>.a{fill:none;}.b{clip-path:url(#a);}.c{fill:#231f20;}.d{fill:#58595b;}.e{fill:#fff;}</style><clipPath id="a"><rect class="a" width="120" height="120"/></clipPath></defs><title>pegi-in-game-purchases-english</title><g class="b"><rect class="c" width="120" height="120"/><polygon class="d" points="0 24.56 1.95 23.09 0 20.51 0 24.56"/><g class="b"><path class="d" d="M7,19.31-.84,9,2.24,6.64C4.45,5,6.17,4.85,8,7.26S9.53,11,7,12.93l-.48.36,3.05,4Zm-1.86-8c.88-.66,1.15-1.11.28-2.26-.74-1-1.14-1-2.17-.25Z"/><polygon class="d" points="14.21 13.84 6.41 3.5 12.33 -0.97 13.94 1.17 10.75 3.57 12.08 5.33 14.71 3.34 16.39 5.56 13.75 7.55 15.27 9.57 18.62 7.04 20.3 9.26 14.21 13.84"/><path class="d" d="M21.79,3.75c.47.62.95.64,1.37.33s.53-.79.07-1.41l-.78-1-.68.52L20.32.23l3.41-2.58,4.34,5.76-1.4,1-.81-.25a3.62,3.62,0,0,1-1.45,2.23c-2.72,2-4.19,1.16-7.27-2.92-2.94-3.9-3.09-6-.45-8,1.46-1.1,3.19-1.55,4.64-.61a6.74,6.74,0,0,1,1.52,1.62L20.12-1.46l-.46-.6c-.46-.62-.94-.64-1.36-.33s-.54.79-.07,1.41Z"/><rect class="d" x="25.41" y="-10.48" width="3.42" height="12.96" transform="translate(7.87 15.52) rotate(-37.01)"/><path class="d" d="M2.29,44.77-5.52,34.42l3.08-2.32c2.21-1.67,3.93-1.78,5.74.62s1.55,3.78-.95,5.67l-.47.36,3,4Zm-1.87-8c.88-.67,1.15-1.12.28-2.27-.73-1-1.14-1-2.17-.24Z"/><polygon class="d" points="9.54 39.31 1.73 28.95 7.65 24.49 9.26 26.63 6.08 29.03 7.4 30.79 10.04 28.8 11.71 31.02 9.08 33.01 10.59 35.03 13.94 32.5 15.62 34.72 9.54 39.31"/><path class="d" d="M17.12,29.21c.46.62.94.65,1.36.33s.53-.79.07-1.41l-.78-1-.68.51-1.45-1.93,3.41-2.57,4.34,5.75L22,29.92l-.81-.25a3.58,3.58,0,0,1-1.45,2.23c-2.72,2-4.19,1.17-7.27-2.91-2.94-3.91-3.09-6.06-.45-8,1.46-1.1,3.19-1.55,4.64-.6A6.47,6.47,0,0,1,18.17,22L15.44,24,15,23.4c-.46-.62-.94-.64-1.36-.33s-.54.79-.07,1.41Z"/><rect class="d" x="20.73" y="14.98" width="3.42" height="12.96" transform="translate(-8.4 17.83) rotate(-37)"/><path class="d" d="M32.73,21.83l-7.8-10.35L28,9.16c2.21-1.67,3.93-1.79,5.75.62s1.55,3.79-1,5.67l-.47.36,3,4Zm-1.87-7.95c.88-.66,1.15-1.12.28-2.27-.73-1-1.14-1-2.16-.24Z"/><polygon class="d" points="39.98 16.37 32.18 6.02 38.1 1.55 39.7 3.69 36.52 6.09 37.84 7.85 40.48 5.87 42.15 8.09 39.52 10.07 41.04 12.09 44.39 9.56 46.06 11.79 39.98 16.37"/><path class="d" d="M47.56,6.27c.47.62.94.65,1.36.33s.54-.79.07-1.41l-.77-1-.68.51L46.08,2.75,49.5.18l4.33,5.75L52.43,7l-.8-.25A3.63,3.63,0,0,1,50.17,9c-2.71,2-4.19,1.17-7.26-2.91C40,2.14,39.81,0,42.45-2c1.46-1.1,3.19-1.55,4.64-.6A6.47,6.47,0,0,1,48.61-1L45.88,1.07,45.43.46c-.47-.62-1-.64-1.37-.32s-.53.78-.06,1.4Z"/><rect class="d" x="51.17" y="-7.96" width="3.42" height="12.96" transform="translate(11.54 31.53) rotate(-37)"/><path class="d" d="M-2.39,70.23l-7.8-10.35,3.07-2.32c2.21-1.67,3.93-1.78,5.75.62s1.55,3.79-1,5.67l-.47.36,3,4Zm-1.87-8c.88-.66,1.15-1.12.28-2.27-.73-1-1.14-1-2.16-.24Z"/><polygon class="d" points="4.86 64.77 -2.94 54.42 2.98 49.95 4.58 52.09 1.4 54.49 2.72 56.25 5.36 54.26 7.03 56.48 4.4 58.47 5.92 60.49 9.27 57.96 10.94 60.19 4.86 64.77"/><path class="d" d="M12.44,54.67c.47.62.94.65,1.36.33s.54-.79.07-1.41l-.77-1-.69.51L11,51.15l3.42-2.57,4.33,5.75-1.4,1.05-.8-.25a3.57,3.57,0,0,1-1.46,2.23c-2.71,2-4.19,1.17-7.27-2.91-2.94-3.91-3.08-6.06-.45-8.05,1.46-1.1,3.19-1.54,4.65-.6a6.47,6.47,0,0,1,1.51,1.61l-2.73,2.06-.46-.61c-.46-.62-.94-.64-1.36-.32s-.53.78-.06,1.4Z"/><rect class="d" x="16.06" y="40.45" width="3.42" height="12.96" transform="translate(-24.67 20.14) rotate(-37)"/><path class="d" d="M28.05,47.29l-7.8-10.35,3.07-2.32c2.22-1.67,3.93-1.78,5.75.62s1.55,3.79-.95,5.67l-.48.36,3.05,4Zm-1.86-7.95c.88-.66,1.15-1.12.28-2.27-.74-1-1.15-1-2.17-.24Z"/><polygon class="d" points="35.3 41.83 27.5 31.48 33.42 27.02 35.03 29.15 31.84 31.55 33.17 33.31 35.8 31.32 37.47 33.55 34.84 35.53 36.36 37.55 39.71 35.02 41.38 37.25 35.3 41.83"/><path class="d" d="M42.88,31.73c.47.62.95.65,1.37.33s.53-.79.06-1.41l-.77-1-.68.51L41.4,28.21l3.42-2.57,4.33,5.75-1.39,1L47,32.19a3.57,3.57,0,0,1-1.46,2.23c-2.71,2-4.19,1.17-7.26-2.91-2.95-3.91-3.09-6.06-.46-8,1.47-1.1,3.2-1.55,4.65-.6a6.47,6.47,0,0,1,1.52,1.61l-2.73,2.06-.46-.61c-.47-.62-.94-.64-1.37-.32s-.53.78-.06,1.4Z"/><rect class="d" x="46.5" y="17.5" width="3.42" height="12.97" transform="translate(-4.73 33.84) rotate(-37)"/><path class="d" d="M58.49,24.35,50.69,14l3.08-2.32C56,10,57.7,9.9,59.51,12.31s1.55,3.78-1,5.66l-.47.36,3.05,4Zm-1.86-8c.88-.66,1.15-1.12.28-2.27-.74-1-1.14-1-2.17-.24Z"/><polygon class="d" points="65.75 18.89 57.94 8.54 63.86 4.07 65.47 6.21 62.28 8.61 63.61 10.37 66.24 8.38 67.91 10.61 65.28 12.59 66.8 14.61 70.15 12.09 71.82 14.31 65.75 18.89"/><path class="d" d="M73.32,8.79c.47.62,1,.65,1.37.33s.53-.79.06-1.41l-.77-1-.68.51L71.84,5.27,75.26,2.7,79.6,8.45,78.19,9.51l-.8-.26a3.59,3.59,0,0,1-1.45,2.23c-2.72,2-4.19,1.17-7.27-2.91-2.94-3.91-3.09-6.06-.46-8,1.47-1.1,3.2-1.55,4.65-.6a6.65,6.65,0,0,1,1.52,1.61L71.65,3.59,71.19,3c-.47-.62-.94-.64-1.37-.32s-.53.78-.06,1.4Z"/><rect class="d" x="76.94" y="-5.44" width="3.42" height="12.97" transform="translate(15.22 47.55) rotate(-37.01)"/><path class="d" d="M88.94,1.41,81.13-8.94l3.08-2.32c2.21-1.66,3.93-1.78,5.75.63S91.5-6.85,89-5l-.48.36,3,4ZM87.07-6.54c.88-.66,1.15-1.12.28-2.27-.74-1-1.14-1-2.17-.24Z"/><polygon class="d" points="0.18 90.23 -7.62 79.88 -1.7 75.42 -0.09 77.55 -3.28 79.95 -1.96 81.71 0.68 79.73 2.35 81.95 -0.28 83.93 1.24 85.95 4.59 83.43 6.26 85.65 0.18 90.23"/><path class="d" d="M7.76,80.13c.47.62,1,.65,1.37.33s.53-.79.06-1.4l-.77-1-.68.51L6.28,76.61,9.7,74,14,79.79l-1.4,1.06-.8-.26a3.57,3.57,0,0,1-1.46,2.23C7.66,84.87,6.18,84,3.11,79.91.16,76,0,73.85,2.65,71.86c1.46-1.1,3.19-1.54,4.65-.6a6.85,6.85,0,0,1,1.52,1.61L6.08,74.93l-.45-.61c-.47-.61-.94-.64-1.37-.32s-.53.78-.06,1.4Z"/><rect class="d" x="11.38" y="65.91" width="3.42" height="12.96" transform="translate(-40.92 22.45) rotate(-36.99)"/><path class="d" d="M23.37,72.75,15.57,62.4l3.08-2.32c2.21-1.66,3.93-1.78,5.74.63s1.55,3.78-.95,5.66l-.47.36,3,4Zm-1.86-8c.88-.66,1.15-1.12.28-2.27-.74-1-1.15-1-2.17-.24Z"/><polygon class="d" points="30.62 67.29 22.82 56.94 28.74 52.48 30.35 54.61 27.16 57.01 28.49 58.77 31.12 56.79 32.8 59.01 30.16 60.99 31.68 63.01 35.03 60.49 36.7 62.71 30.62 67.29"/><path class="d" d="M38.21,57.19c.46.62.94.65,1.36.33s.53-.79.07-1.41l-.78-1-.68.51-1.46-1.93,3.42-2.57,4.33,5.75-1.39,1.06-.81-.26a3.59,3.59,0,0,1-1.45,2.23c-2.72,2-4.19,1.17-7.27-2.91-2.95-3.91-3.09-6.06-.45-8,1.46-1.1,3.19-1.54,4.64-.6a6.47,6.47,0,0,1,1.52,1.61L36.53,52l-.46-.61c-.47-.61-.94-.64-1.36-.32s-.54.78-.07,1.4Z"/><rect class="d" x="41.82" y="42.97" width="3.42" height="12.96" transform="translate(-20.99 36.15) rotate(-36.99)"/><path class="d" d="M53.82,49.81,46,39.46l3.08-2.32c2.21-1.66,3.93-1.78,5.74.63s1.55,3.78-.95,5.67l-.47.35,3,4Zm-1.87-8c.88-.66,1.15-1.12.28-2.27-.73-1-1.14-1-2.17-.24Z"/><polygon class="d" points="61.07 44.35 53.26 34 59.18 29.54 60.79 31.67 57.6 34.08 58.93 35.83 61.56 33.85 63.24 36.07 60.6 38.05 62.12 40.07 65.47 37.55 67.15 39.77 61.07 44.35"/><path class="d" d="M68.65,34.25c.46.62.94.65,1.36.33s.53-.78.07-1.4l-.77-1-.69.52-1.45-1.94,3.41-2.57,4.34,5.75L73.52,35l-.81-.26a3.59,3.59,0,0,1-1.45,2.23C68.54,39,67.07,38.11,64,34c-2.94-3.91-3.09-6.06-.45-8,1.46-1.11,3.19-1.55,4.64-.61A6.85,6.85,0,0,1,69.7,27L67,29.05l-.46-.61c-.47-.61-.94-.64-1.37-.32s-.53.78-.06,1.4Z"/><rect class="d" x="72.26" y="20.03" width="3.42" height="12.97" transform="translate(-1.06 49.85) rotate(-36.99)"/><path class="d" d="M84.26,26.87,76.45,16.52l3.08-2.32c2.21-1.66,3.93-1.78,5.75.63s1.55,3.78-1,5.67l-.47.35,3,4Zm-1.87-7.95c.88-.66,1.15-1.12.29-2.27-.74-1-1.15-1-2.17-.24Z"/><polygon class="d" points="91.51 21.41 83.71 11.06 89.63 6.6 91.24 8.73 88.05 11.13 89.37 12.89 92.01 10.91 93.68 13.13 91.05 15.11 92.56 17.13 95.92 14.61 97.59 16.83 91.51 21.41"/><path class="d" d="M99.09,11.31c.46.62.94.65,1.36.33s.54-.78.07-1.41l-.77-1-.69.52L97.61,7.79,101,5.22,105.36,11,104,12l-.8-.26A3.61,3.61,0,0,1,101.7,14c-2.71,2.05-4.19,1.17-7.26-2.91-3-3.91-3.09-6.06-.46-8,1.46-1.11,3.19-1.55,4.64-.61a6.65,6.65,0,0,1,1.53,1.61L97.41,6.11,97,5.5c-.47-.62-.95-.64-1.37-.32s-.53.78-.06,1.4Z"/><rect class="d" x="102.7" y="-2.91" width="3.42" height="12.96" transform="translate(18.88 63.56) rotate(-37)"/><path class="d" d="M114.7,3.93,106.9-6.42,110-8.74c2.21-1.66,3.93-1.78,5.75.63s1.55,3.78-1,5.67l-.47.35,3,4ZM112.84-4c.88-.66,1.15-1.11.28-2.27-.74-1-1.15-1-2.17-.24Z"/><polygon class="d" points="-4.5 115.69 -12.3 105.34 -6.38 100.88 -4.77 103.01 -7.96 105.42 -6.63 107.17 -4 105.19 -2.33 107.41 -4.96 109.4 -3.44 111.41 -0.09 108.89 1.58 111.11 -4.5 115.69"/><path class="d" d="M3.08,105.6c.47.61,1,.64,1.37.32s.53-.78.06-1.4l-.77-1-.68.52L1.6,102.07,5,99.5l4.33,5.75L8,106.31l-.81-.25a3.6,3.6,0,0,1-1.45,2.22c-2.72,2-4.19,1.17-7.27-2.91-2.95-3.91-3.09-6.06-.46-8,1.47-1.1,3.2-1.55,4.65-.61a6.74,6.74,0,0,1,1.52,1.62l-2.73,2L1,99.79c-.47-.62-.94-.65-1.37-.33s-.53.79-.06,1.4Z"/><rect class="d" x="6.7" y="91.37" width="3.42" height="12.97" transform="translate(-57.2 24.77) rotate(-37)"/><path class="d" d="M18.7,98.22,10.89,87.86,14,85.55c2.21-1.67,3.93-1.79,5.74.62s1.56,3.78-.95,5.67l-.47.35,3,4Zm-1.87-8c.88-.66,1.15-1.11.28-2.27-.74-1-1.14-1-2.17-.24Z"/><polygon class="d" points="25.95 92.75 18.14 82.4 24.06 77.94 25.67 80.07 22.48 82.47 23.81 84.23 26.44 82.25 28.12 84.47 25.48 86.46 27 88.47 30.35 85.95 32.03 88.17 25.95 92.75"/><path class="d" d="M33.53,82.65c.46.62.94.65,1.36.33s.54-.78.07-1.4l-.78-1-.68.52-1.45-1.94,3.41-2.57,4.34,5.75-1.4,1.06-.8-.25a3.66,3.66,0,0,1-1.46,2.22c-2.72,2-4.19,1.17-7.27-2.91-2.94-3.91-3.09-6.06-.45-8,1.46-1.1,3.19-1.55,4.64-.61a6.65,6.65,0,0,1,1.52,1.61l-2.73,2.06-.46-.6c-.46-.62-.94-.65-1.36-.33s-.53.79-.07,1.4Z"/><rect class="d" x="37.14" y="68.43" width="3.42" height="12.97" transform="translate(-37.26 38.47) rotate(-37)"/><path class="d" d="M49.14,75.28l-7.8-10.36,3.07-2.31c2.22-1.67,3.93-1.79,5.75.62s1.55,3.78-1,5.67l-.47.35,3,4Zm-1.86-8c.87-.66,1.15-1.11.27-2.27-.73-1-1.14-1-2.17-.24Z"/><polygon class="d" points="56.39 69.81 48.59 59.46 54.51 55 56.12 57.13 52.93 59.53 54.25 61.29 56.88 59.31 58.56 61.53 55.93 63.52 57.45 65.53 60.8 63.01 62.47 65.23 56.39 69.81"/><path class="d" d="M64,59.71c.47.62,1,.65,1.37.33s.53-.78.06-1.4l-.77-1-.69.52-1.45-1.94,3.41-2.57,4.34,5.75-1.4,1.06-.8-.26a3.61,3.61,0,0,1-1.46,2.23c-2.72,2.05-4.19,1.17-7.27-2.91-2.94-3.91-3.08-6.06-.45-8,1.46-1.11,3.2-1.55,4.64-.61A6.47,6.47,0,0,1,65,52.45L62.3,54.51l-.47-.6c-.46-.62-.94-.65-1.36-.33s-.53.78-.06,1.4Z"/><rect class="d" x="67.58" y="45.49" width="3.42" height="12.96" transform="translate(-17.32 52.16) rotate(-36.99)"/><path class="d" d="M79.58,52.34,71.78,42l3.07-2.31c2.22-1.67,3.93-1.79,5.75.62s1.55,3.78-1,5.67l-.47.35,3,4Zm-1.86-8c.87-.66,1.15-1.11.28-2.27-.74-1-1.15-1-2.17-.24Z"/><polygon class="d" points="86.83 46.87 79.03 36.52 84.95 32.06 86.56 34.2 83.37 36.6 84.69 38.35 87.33 36.37 89 38.59 86.37 40.58 87.89 42.59 91.24 40.07 92.91 42.29 86.83 46.87"/><path class="d" d="M94.41,36.77c.47.63,1,.65,1.37.33s.53-.78.06-1.4l-.77-1-.69.52-1.45-1.94,3.42-2.57,4.33,5.76-1.4,1.05-.8-.25A3.57,3.57,0,0,1,97,39.46c-2.71,2-4.19,1.17-7.26-2.91-3-3.91-3.09-6.06-.46-8,1.47-1.1,3.2-1.55,4.65-.61a6.85,6.85,0,0,1,1.52,1.61l-2.73,2.06-.46-.6c-.47-.62-1-.65-1.37-.33s-.53.79-.06,1.4Z"/><rect class="d" x="98.03" y="22.55" width="3.42" height="12.97" transform="translate(2.62 65.89) rotate(-37.01)"/><path class="d" d="M110,29.4,102.22,19l3.08-2.31c2.21-1.67,3.92-1.79,5.74.62s1.55,3.78-1,5.67l-.48.35,3,4Zm-1.86-8c.88-.66,1.15-1.11.28-2.27-.74-1-1.14-1-2.17-.24Z"/><polygon class="d" points="117.27 23.93 109.47 13.58 115.39 9.12 117 11.25 113.81 13.66 115.14 15.41 117.77 13.43 119.44 15.65 116.81 17.64 118.33 19.65 121.68 17.13 123.35 19.35 117.27 23.93"/><path class="d" d="M124.85,13.83c.47.63,1,.65,1.37.33s.53-.78.06-1.4l-.77-1-.68.52-1.46-1.94,3.42-2.57,4.34,5.76-1.41,1.05-.8-.26a3.59,3.59,0,0,1-1.45,2.23c-2.72,2.05-4.2,1.17-7.27-2.91-2.94-3.91-3.09-6.06-.46-8,1.47-1.11,3.2-1.55,4.65-.61a6.85,6.85,0,0,1,1.52,1.61l-2.73,2.06-.46-.6c-.47-.62-.94-.65-1.37-.33s-.53.78-.06,1.4Z"/><rect class="d" x="2.02" y="116.83" width="3.42" height="12.96" transform="translate(-73.47 27.09) rotate(-37.01)"/><path class="d" d="M14,123.68l-7.8-10.36L9.29,111c2.21-1.67,3.93-1.79,5.75.62s1.55,3.78-1,5.67l-.47.36,3,4Zm-1.87-8c.88-.66,1.15-1.11.29-2.26-.74-1-1.15-1-2.17-.25Z"/><polygon class="d" points="21.27 118.21 13.47 107.86 19.39 103.4 20.99 105.54 17.81 107.94 19.13 109.7 21.77 107.71 23.44 109.93 20.81 111.92 22.33 113.94 25.68 111.41 27.35 113.63 21.27 118.21"/><path class="d" d="M28.85,108.12c.47.62.94.65,1.36.33s.54-.79.07-1.41l-.77-1-.68.52-1.46-1.93L30.79,102l4.33,5.76-1.4,1-.8-.25a3.59,3.59,0,0,1-1.46,2.23c-2.71,2-4.19,1.16-7.26-2.92-2.95-3.9-3.09-6-.46-8,1.46-1.1,3.19-1.55,4.65-.61a7,7,0,0,1,1.52,1.62l-2.74,2-.45-.6c-.47-.62-.95-.64-1.37-.32s-.53.78-.06,1.4Z"/><rect class="d" x="32.46" y="93.89" width="3.42" height="12.96" transform="translate(-53.53 40.79) rotate(-37.01)"/><path class="d" d="M44.46,100.74l-7.8-10.36,3.07-2.31c2.22-1.67,3.93-1.79,5.75.62s1.55,3.78-1,5.67l-.47.36,3.05,4Zm-1.86-8c.88-.66,1.15-1.11.28-2.26-.74-1-1.15-1-2.17-.25Z"/><polygon class="d" points="51.71 95.27 43.91 84.92 49.83 80.46 51.44 82.6 48.25 85 49.58 86.76 52.21 84.77 53.88 86.99 51.25 88.98 52.77 91 56.12 88.47 57.79 90.69 51.71 95.27"/><path class="d" d="M59.29,85.18c.47.62,1,.64,1.37.33s.53-.79.07-1.41l-.78-1-.68.52-1.46-1.93,3.42-2.58,4.33,5.76-1.4,1-.8-.25a3.62,3.62,0,0,1-1.45,2.23c-2.72,2-4.2,1.16-7.27-2.92-3-3.9-3.09-6-.45-8,1.46-1.1,3.19-1.55,4.64-.61a6.74,6.74,0,0,1,1.52,1.62l-2.73,2-.46-.6c-.47-.62-.94-.64-1.37-.33s-.53.79-.06,1.41Z"/><rect class="d" x="62.91" y="70.95" width="3.42" height="12.96" transform="translate(-33.59 54.48) rotate(-37)"/><path class="d" d="M74.9,77.8,67.1,67.45l3.08-2.32c2.21-1.67,3.93-1.79,5.74.62s1.55,3.78-1,5.67l-.47.36,3,4Zm-1.86-8c.88-.66,1.15-1.11.28-2.26-.74-1-1.14-1-2.17-.25Z"/><polygon class="d" points="82.15 72.33 74.35 61.98 80.27 57.52 81.88 59.66 78.69 62.06 80.02 63.81 82.65 61.83 84.33 64.05 81.69 66.04 83.21 68.06 86.56 65.53 88.23 67.75 82.15 72.33"/><path class="d" d="M89.74,62.24c.46.62.94.64,1.36.32s.53-.78.07-1.4l-.78-1-.68.52-1.46-1.93,3.42-2.58L96,61.9,94.6,63l-.8-.25a3.62,3.62,0,0,1-1.45,2.23c-2.72,2-4.19,1.16-7.27-2.91C82.14,58.11,82,56,84.63,54c1.46-1.1,3.19-1.55,4.64-.6A6.47,6.47,0,0,1,90.79,55L88.06,57l-.46-.61c-.47-.62-.94-.65-1.37-.33s-.53.79-.06,1.41Z"/><rect class="d" x="93.35" y="48.01" width="3.42" height="12.96" transform="translate(-13.65 68.21) rotate(-37.02)"/><path class="d" d="M105.34,54.86l-7.8-10.35,3.08-2.32c2.21-1.66,3.93-1.79,5.75.62s1.54,3.78-1,5.67l-.47.35,3,4Zm-1.86-8c.88-.66,1.15-1.11.28-2.26-.73-1-1.14-1-2.17-.25Z"/><polygon class="d" points="112.6 49.4 104.8 39.04 110.71 34.58 112.32 36.72 109.14 39.12 110.46 40.88 113.09 38.9 114.77 41.11 112.14 43.1 113.65 45.12 117 42.59 118.67 44.81 112.6 49.4"/><path class="d" d="M120.18,39.3c.46.62.94.64,1.36.33s.53-.79.07-1.41l-.77-1-.69.52-1.45-1.93,3.41-2.57L126.45,39l-1.4,1-.81-.25A3.58,3.58,0,0,1,122.79,42c-2.72,2-4.19,1.16-7.27-2.91-2.94-3.91-3.09-6.06-.45-8,1.46-1.1,3.19-1.55,4.64-.6A6.47,6.47,0,0,1,121.23,32L118.5,34.1l-.46-.61c-.46-.62-.94-.64-1.36-.33s-.54.79-.07,1.41Z"/><path class="d" d="M39.78,126.2,32,115.85l3.08-2.32c2.21-1.66,3.93-1.78,5.74.62s1.55,3.79-.95,5.67l-.48.36,3.05,4Zm-1.86-8c.88-.66,1.15-1.12.28-2.27-.74-1-1.15-1-2.17-.24Z"/><polygon class="d" points="47.03 120.74 39.23 110.39 45.15 105.92 46.76 108.06 43.57 110.46 44.9 112.22 47.53 110.24 49.2 112.46 46.57 114.44 48.09 116.46 51.44 113.93 53.11 116.16 47.03 120.74"/><path class="d" d="M54.61,110.64c.47.62,1,.65,1.37.33s.53-.79.06-1.41l-.77-1-.68.51-1.46-1.93,3.42-2.57,4.33,5.75-1.39,1-.81-.25a3.57,3.57,0,0,1-1.46,2.23c-2.71,2-4.19,1.17-7.26-2.91-3-3.91-3.09-6.06-.46-8,1.47-1.1,3.2-1.54,4.65-.6a6.47,6.47,0,0,1,1.52,1.61l-2.73,2.06-.46-.61c-.47-.62-.94-.64-1.37-.32s-.53.78-.06,1.4Z"/><rect class="d" x="58.23" y="96.41" width="3.42" height="12.96" transform="translate(-49.85 56.79) rotate(-37)"/><path class="d" d="M70.22,103.26l-7.8-10.35,3.08-2.32c2.21-1.67,3.93-1.79,5.74.62s1.55,3.79-.95,5.67l-.48.36,3,4Zm-1.86-8c.88-.66,1.15-1.12.28-2.27-.74-1-1.15-1-2.17-.24Z"/><polygon class="d" points="77.47 97.8 69.67 87.45 75.59 82.98 77.2 85.12 74.01 87.52 75.34 89.28 77.97 87.3 79.65 89.52 77.01 91.5 78.53 93.52 81.88 90.99 83.56 93.22 77.47 97.8"/><path class="d" d="M85.06,87.7c.46.62.94.65,1.36.33s.54-.79.07-1.41l-.78-1-.68.51-1.45-1.93L87,81.61l4.33,5.75-1.39,1-.81-.25a3.62,3.62,0,0,1-1.45,2.23c-2.72,2-4.19,1.17-7.27-2.91-3-3.91-3.09-6.06-.45-8,1.46-1.1,3.19-1.55,4.64-.6a6.47,6.47,0,0,1,1.52,1.61L83.38,82.5l-.46-.61c-.46-.62-.94-.64-1.36-.32s-.54.78-.07,1.4Z"/><rect class="d" x="88.67" y="73.48" width="3.42" height="12.96" transform="translate(-29.92 70.48) rotate(-36.99)"/><path class="d" d="M100.67,80.32,92.87,70l3.07-2.32c2.21-1.66,3.93-1.79,5.74.62s1.56,3.79-1,5.67l-.47.36,3,4Zm-1.86-7.95c.87-.66,1.14-1.12.27-2.27-.73-1-1.14-1-2.17-.24Z"/><polygon class="d" points="107.92 74.86 100.11 64.51 106.03 60.04 107.64 62.18 104.45 64.58 105.78 66.34 108.42 64.36 110.09 66.58 107.45 68.56 108.97 70.58 112.32 68.05 114 70.28 107.92 74.86"/><path class="d" d="M115.5,64.76c.47.62.94.65,1.36.33s.54-.79.07-1.41l-.78-1-.68.51L114,61.24l3.41-2.57,4.34,5.75-1.4,1.06-.8-.26a3.65,3.65,0,0,1-1.46,2.23c-2.72,2-4.19,1.17-7.27-2.91-2.94-3.91-3.09-6.06-.45-8.05,1.46-1.1,3.19-1.54,4.64-.6a6.47,6.47,0,0,1,1.52,1.61l-2.73,2.06-.46-.61c-.46-.62-.94-.64-1.36-.32s-.53.78-.06,1.4Z"/><rect class="d" x="119.11" y="50.53" width="3.42" height="12.96" transform="translate(-9.99 84.18) rotate(-36.99)"/><path class="d" d="M65.55,128.72l-7.81-10.35,3.08-2.32c2.21-1.66,3.93-1.78,5.74.63s1.56,3.78-1,5.66l-.47.36,3,4Zm-1.87-8c.88-.66,1.15-1.12.28-2.27-.74-1-1.14-1-2.17-.24Z"/><polygon class="d" points="72.8 123.26 65 112.91 70.92 108.45 72.52 110.58 69.34 112.98 70.66 114.74 73.3 112.75 74.97 114.98 72.34 116.96 73.85 118.98 77.21 116.46 78.88 118.68 72.8 123.26"/><path class="d" d="M80.38,113.16c.46.62.94.65,1.36.33s.54-.79.07-1.41l-.78-1-.68.51-1.45-1.93,3.41-2.57,4.34,5.75-1.4,1.06-.8-.26A3.61,3.61,0,0,1,83,115.85c-2.71,2.05-4.19,1.17-7.26-2.91-3-3.91-3.1-6.06-.46-8,1.46-1.11,3.19-1.55,4.64-.61a6.65,6.65,0,0,1,1.52,1.61L78.7,108l-.45-.61c-.47-.62-1-.64-1.37-.32s-.53.78-.07,1.4Z"/><rect class="d" x="83.99" y="98.94" width="3.42" height="12.96" transform="translate(-46.18 72.79) rotate(-36.99)"/><path class="d" d="M96,105.78l-7.8-10.35,3.07-2.32c2.21-1.66,3.93-1.78,5.74.63s1.56,3.78-1,5.66l-.47.36,3,4Zm-1.86-8c.87-.66,1.15-1.12.27-2.27-.73-1-1.14-1-2.17-.24Z"/><polygon class="d" points="103.24 100.32 95.44 89.97 101.36 85.51 102.96 87.64 99.78 90.04 101.1 91.8 103.74 89.82 105.41 92.04 102.78 94.02 104.3 96.04 107.65 93.52 109.32 95.74 103.24 100.32"/><path class="d" d="M110.82,90.22c.47.62,1,.65,1.37.33s.53-.78.06-1.41l-.77-1-.68.52-1.46-1.94,3.42-2.57,4.33,5.75-1.4,1.06-.8-.26a3.57,3.57,0,0,1-1.46,2.23c-2.71,2-4.19,1.17-7.26-2.91-3-3.91-3.1-6.06-.46-8,1.46-1.1,3.19-1.54,4.65-.6A6.47,6.47,0,0,1,111.87,83L109.14,85l-.45-.61c-.47-.62-1-.64-1.37-.32s-.53.78-.06,1.4Z"/><rect class="d" x="114.43" y="76" width="3.42" height="12.97" transform="translate(-26.25 86.53) rotate(-37.01)"/><path class="d" d="M126.43,82.84l-7.8-10.35,3.07-2.32c2.22-1.66,3.94-1.78,5.75.63s1.55,3.78-1,5.66l-.48.36,3,4Zm-1.86-8c.87-.66,1.15-1.12.28-2.27-.74-1-1.15-1-2.17-.24Z"/><path class="d" d="M93.08,129.92l-7.8-10.36,3.07-2.31c2.21-1.67,3.93-1.79,5.74.62s1.56,3.78-1,5.67l-.47.35,3,4Zm-1.87-8c.88-.66,1.15-1.11.28-2.26-.74-1-1.14-1-2.17-.25Z"/><polygon class="d" points="100.33 124.45 92.52 114.1 98.44 109.64 100.05 111.77 96.87 114.17 98.19 115.94 100.83 113.95 102.5 116.17 99.87 118.16 101.38 120.17 104.73 117.65 106.41 119.87 100.33 124.45"/><path class="d" d="M107.91,114.36c.46.62.94.64,1.36.32s.54-.78.07-1.4l-.78-1-.68.52-1.45-1.93,3.42-2.58,4.33,5.75-1.4,1.06-.8-.26a3.65,3.65,0,0,1-1.46,2.23c-2.71,2-4.19,1.17-7.27-2.91-2.94-3.91-3.09-6.06-.45-8,1.46-1.1,3.19-1.55,4.64-.61A6.74,6.74,0,0,1,109,107.1l-2.73,2.05-.46-.6c-.46-.62-.94-.65-1.36-.33s-.53.79-.07,1.41Z"/><rect class="d" x="111.52" y="100.13" width="3.42" height="12.96" transform="translate(-41.36 89.64) rotate(-37.01)"/><path class="d" d="M123.52,107l-7.8-10.35,3.07-2.31c2.22-1.67,3.93-1.79,5.74.62s1.56,3.78-1,5.67l-.47.35,3,4Zm-1.86-8c.87-.66,1.15-1.11.27-2.26-.73-1-1.14-1-2.16-.25Z"/></g><g class="b"><path class="e" d="M114.24,47.73l-10.33-31A7.41,7.41,0,0,0,94.54,12L43.93,29.49a7.43,7.43,0,0,0-5,8.31l-.89.14A18.61,18.61,0,0,0,25,47.08L6.92,78.6a2.26,2.26,0,1,0,3.92,2.24L28.93,49.29a14.1,14.1,0,0,1,9.93-6.89c.49-.09,1-.16,1.48-.24l6.52,19.58a19.28,19.28,0,0,1-5.81,2.57A2.27,2.27,0,1,0,42.2,68.7a23.73,23.73,0,0,0,6.13-2.55h0a6.74,6.74,0,0,0,1.21-.78c.44-.3.87-.61,1.29-.94l1-.8,9.82-7.57a4,4,0,0,1,4.88,6.29l-8.19,6.47a21.13,21.13,0,0,0-7,10A16.55,16.55,0,0,1,39.71,89.71l-.7.19a21.27,21.27,0,0,0-7.71,3.78,2.27,2.27,0,0,0,2.79,3.57,16.48,16.48,0,0,1,6.07-3l.7-.19a21.06,21.06,0,0,0,10.29-6.2l3-4.27.42-.8a6.92,6.92,0,0,0,7.28.25,7.3,7.3,0,0,0,2.43-2.48,6.92,6.92,0,0,0,9.23-3.21c.08-.17.15-.34.22-.52a7.62,7.62,0,0,0,4.14-.27c4-1.19,3.36-6,2.48-9.14L109.55,57.1a7.41,7.41,0,0,0,4.69-9.37m-69-14.3L95.85,16A3.28,3.28,0,0,1,100,18l.7,2.11L57,35.29l-.25.08-12.89,4.3-.71-2.11a3.27,3.27,0,0,1,2.07-4.13M59.32,79.34a2.62,2.62,0,0,1-3.09-.6q.27-.63.6-1.23l2.22-3,1-.33.64,1.93a2.63,2.63,0,0,1-1.36,3.2m8.25-2.61a2.39,2.39,0,0,1-2.5-1.59c0-.14-.08-.28-.12-.42l-.64-1.93,4.63-1.55.77,2.86a2.39,2.39,0,0,1-2.14,2.63m8.77-3.88a2.14,2.14,0,0,1-2.56-.59l-.84-2.35,4-1.32c.68,1.7,1.1,3.65-.58,4.26m31.9-19.69h0L67.66,67.29l1.74-1.36A8.48,8.48,0,0,0,59,52.53l-5.09,3.91s-2.05,1.18-3.77,2.37l-3.2-9,56.79-19.54L110.3,49a3.25,3.25,0,0,1-2.06,4.12"/></g><path class="c" d="M2.4,2.4H117.6V117.6H2.4ZM0,120H120V0H0Z"/><rect class="c" y="100.8" width="120" height="19.2"/><path class="e" d="M107.46,4.8v.89h-1.89v6h-1.12v-6h-1.9V4.8Zm7.74,6.9h-1.12V6.27h0l-1.91,5.43h-.91l-1.82-5.43h0V11.7h-1.12V4.8H110l1.71,5.14h0l1.67-5.14h1.74Z"/><rect class="e" x="2.5" y="104" width="2.63" height="12.6"/><polygon class="e" points="10.26 104 12.72 104 12.72 116.6 9.92 116.6 8.46 108.84 8.44 108.84 8.44 116.6 6.05 116.6 6.05 104 8.9 104 10.23 111.7 10.26 111.7 10.26 104"/><rect class="e" x="13.57" y="110.05" width="4.25" height="2.86"/><g class="b"><path class="e" d="M21.84,109.74h3.22v6.86H23.23l-.06-1h0a1.8,1.8,0,0,1-1.93,1.27c-2.66,0-2.74-3.14-2.74-6.53,0-3.6.15-6.57,3.35-6.57,2.59,0,3.16,1.75,3.16,4.28H22.51v-.52c0-.93-.15-1.42-.67-1.42s-.67.79-.67,1.55v5.19c0,.77,0,1.69.69,1.69s.73-.65.73-1.59v-.86h-.75Z"/><path class="e" d="M30,114.68H28.27L28,116.6h-2.7L27.53,104h3.29L33,116.6h-2.7Zm-.85-7.92h0l-.61,5.16h1.19Z"/><polygon class="e" points="33.44 104 37.24 104 38.02 111.72 38.04 111.72 38.89 104 42.62 104 42.62 116.6 40.15 116.6 40.15 107.43 40.13 107.43 38.97 116.6 37.08 116.6 35.93 107.43 35.9 107.43 35.9 116.6 33.44 116.6 33.44 104"/><polygon class="e" points="43.63 104 49.27 104 49.27 106.86 46.26 106.86 46.26 108.8 49.07 108.8 49.07 111.55 46.26 111.55 46.26 113.75 49.39 113.75 49.39 116.6 43.63 116.6 43.63 104"/><path class="e" d="M53.59,104h3.47c2,0,3,1.15,3,3.92s-1.3,3.94-3.08,3.94h-.8v4.74H53.59Zm2.62,5.31h.29c.49,0,.89-.12.89-1.39,0-.86-.22-1.38-.89-1.38h-.29Z"/><path class="e" d="M64.61,104h2.63v8.33c0,3-.91,4.52-3.23,4.52-2.55,0-3.22-1.39-3.22-4.52V104h2.62v9c0,1.08.1,1.52.6,1.52s.6-.44.6-1.52Z"/><path class="e" d="M68.16,104H72.1c1.81,0,2.58,1.2,2.58,3.3s-.64,2.86-1.56,3v0a1.55,1.55,0,0,1,1.24,1,6.08,6.08,0,0,1,.26,2.15v1a7,7,0,0,0,.11,1.49.73.73,0,0,0,.28.37v.17H72.23a5.34,5.34,0,0,1-.2-1.81c0-.62,0-1.26,0-1.88,0-1.07-.26-1.26-.72-1.26h-.48v4.95H68.16Zm2.63,5.31h.38c.43,0,.89-.26.89-1.48,0-1-.38-1.29-1-1.29h-.3Z"/><path class="e" d="M79.4,107.64c0-.55,0-1.55-.54-1.55s-.71.63-.71,4.21.07,4.22.71,4.22c.42,0,.59-.56.59-2.13v-1H82v.8c0,3-.88,4.64-3.17,4.64-3.37,0-3.37-2.52-3.37-6.55s0-6.55,3.37-6.55c2.79,0,3.12,2,3.12,4v.92H79.4Z"/><polygon class="e" points="86.6 104 89.22 104 89.22 116.6 86.6 116.6 86.6 111.52 85.35 111.52 85.35 116.6 82.72 116.6 82.72 104 85.35 104 85.35 108.55 86.6 108.55 86.6 104"/><path class="e" d="M94.36,114.68H92.6l-.26,1.92h-2.7L91.86,104h3.29l2.2,12.6h-2.7Zm-.85-7.92h0l-.6,5.16h1.19Z"/><path class="e" d="M101.36,107.11c0-.53-.17-1-.62-1s-.6.45-.6,1c0,2.51,3.9,1.22,3.9,5.72,0,2.93-1,4.09-3.43,4.09-2,0-3.1-.92-3.1-3.69v-.33H100v.58c0,.62.2,1.11.66,1.11s.64-.56.64-1.11a1.23,1.23,0,0,0-.56-1.25c-.36-.27-.82-.51-1.3-.83a3.49,3.49,0,0,1-1.89-3.52,4.3,4.3,0,0,1,1-3.28,3,3,0,0,1,2.14-.78c2.65,0,3.09,1.77,3.09,3.87h-2.46Z"/><polygon class="e" points="104.8 104 110.44 104 110.44 106.86 107.42 106.86 107.42 108.8 110.24 108.8 110.24 111.55 107.42 111.55 107.42 113.75 110.56 113.75 110.56 116.6 104.8 116.6 104.8 104"/><path class="e" d="M115,107.11c0-.53-.17-1-.62-1s-.6.45-.6,1c0,2.51,3.9,1.22,3.9,5.72,0,2.93-1,4.09-3.43,4.09-2,0-3.11-.92-3.11-3.69v-.33h2.54v.58c0,.62.2,1.11.66,1.11s.64-.56.64-1.11a1.23,1.23,0,0,0-.56-1.25c-.36-.27-.82-.51-1.3-.83a3.49,3.49,0,0,1-1.89-3.52,4.3,4.3,0,0,1,1-3.28,3,3,0,0,1,2.14-.78c2.65,0,3.09,1.77,3.09,3.87H115Z"/></g></g></svg>