<svg xmlns="http://www.w3.org/2000/svg" xmlns:xlink="http://www.w3.org/1999/xlink" viewBox="0 0 120 120"><defs><style>.a{fill:none;}.b{fill:#231f20;}.c{clip-path:url(#a);}.d{fill:#58595b;}.e{clip-path:url(#j);}.f{fill:#fff;}</style><clipPath id="a"><polygon class="a" points="120 120 0 120 0 0 120 0 120 120 120 120"/></clipPath><clipPath id="j"><polygon class="a" points="1.73 1.32 118.16 1.32 118.16 117.76 1.73 117.76 1.73 1.32 1.73 1.32 1.73 1.32"/></clipPath></defs><title>pegi-violence-english</title><polygon class="b" points="120 120 0 120 0 0 120 0 120 120 120 120"/><g class="c"><polygon class="d" points="-0.79 25.15 -8.59 14.8 -5.86 12.74 1.95 23.09 -0.79 25.15 -0.79 25.15"/><path class="d" d="M5.1,11.35c.88-.66,1.15-1.11.28-2.26-.74-1-1.14-1-2.17-.25L5.1,11.35Zm1.87,8L-.84,9,2.24,6.64C4.45,5,6.17,4.85,8,7.26S9.53,11,7,12.93l-.47.36,3,4L7,19.31Z"/><polygon class="d" points="14.21 13.84 6.41 3.49 12.33 -0.97 13.94 1.17 10.75 3.57 12.08 5.33 14.71 3.34 16.39 5.56 13.75 7.55 15.27 9.57 18.62 7.04 20.3 9.26 14.21 13.84 14.21 13.84"/><path class="d" d="M21.79,3.75c.47.62.95.64,1.37.32s.53-.78.07-1.4l-.77-1-.69.52L20.32.23l3.41-2.58,4.34,5.76-1.4,1-.81-.25a3.62,3.62,0,0,1-1.45,2.23c-2.72,2-4.2,1.16-7.27-2.92-2.94-3.9-3.09-6-.45-8,1.46-1.1,3.19-1.55,4.64-.61a6.74,6.74,0,0,1,1.52,1.62L20.12-1.46l-.46-.6c-.46-.62-.94-.64-1.36-.32s-.54.78-.07,1.4l3.56,4.73Z"/><polygon class="d" points="29.66 2.21 21.85 -8.14 24.59 -10.2 32.39 0.15 29.66 2.21 29.66 2.21"/><path class="d" d="M.42,36.82c.88-.67,1.15-1.12.28-2.27-.74-1-1.14-1-2.17-.24L.42,36.82Zm1.87,8-7.8-10.35,3.07-2.32c2.21-1.67,3.93-1.78,5.74.62s1.55,3.78-.95,5.67l-.47.36,3,4-2.63,2Z"/></g><polygon class="d" points="9.54 39.31 1.73 28.95 7.65 24.49 9.26 26.63 6.08 29.03 7.4 30.79 10.04 28.8 11.71 31.02 9.07 33.01 10.59 35.03 13.94 32.5 15.62 34.72 9.54 39.31 9.54 39.31"/><path class="d" d="M17.12,29.21c.47.62.94.65,1.37.33s.52-.79.06-1.41l-.78-1-.68.51-1.45-1.93,3.41-2.57,4.34,5.75L22,29.92l-.8-.25a3.61,3.61,0,0,1-1.46,2.23c-2.72,2-4.19,1.17-7.27-2.91-2.94-3.91-3.09-6.06-.45-8,1.46-1.1,3.19-1.55,4.64-.6A6.47,6.47,0,0,1,18.17,22L15.44,24,15,23.4c-.46-.62-.94-.64-1.36-.32s-.53.78-.07,1.4l3.57,4.73Z"/><polygon class="d" points="24.98 27.67 17.18 17.32 19.91 15.26 27.71 25.61 24.98 27.67 24.98 27.67"/><path class="d" d="M30.86,13.88c.88-.66,1.15-1.12.28-2.27-.73-1-1.14-1-2.16-.24l1.88,2.51Zm1.87,7.95-7.8-10.35L28,9.16c2.21-1.67,3.93-1.79,5.75.62s1.55,3.79-1,5.67l-.47.36,3,4-2.63,2Z"/><g class="c"><polygon class="d" points="39.98 16.37 32.18 6.01 38.09 1.55 39.7 3.69 36.52 6.09 37.84 7.85 40.48 5.87 42.15 8.09 39.52 10.07 41.04 12.09 44.39 9.56 46.06 11.79 39.98 16.37 39.98 16.37"/><path class="d" d="M47.56,6.27c.47.62.94.65,1.37.33s.53-.79.06-1.41l-.77-1-.68.51L46.08,2.75,49.5.18l4.33,5.75L52.43,7l-.8-.25A3.63,3.63,0,0,1,50.17,9C47.46,11,46,10.13,42.9,6.05,40,2.14,39.82,0,42.45-2c1.46-1.1,3.19-1.54,4.64-.6A6.29,6.29,0,0,1,48.61-1L45.88,1.07,45.43.46c-.47-.62-1-.64-1.37-.32s-.53.78-.06,1.4l3.56,4.73Z"/><polygon class="d" points="55.42 4.73 47.62 -5.62 50.35 -7.68 58.15 2.67 55.42 4.73 55.42 4.73"/><path class="d" d="M-4.26,62.28c.88-.67,1.15-1.12.28-2.27-.73-1-1.14-1-2.17-.24l1.89,2.51Zm1.87,8-7.8-10.35,3.07-2.32c2.21-1.67,3.93-1.78,5.75.62s1.55,3.79-1,5.67l-.47.36,3,4-2.63,2Z"/><polygon class="d" points="4.86 64.77 -2.94 54.41 2.97 49.95 4.58 52.09 1.4 54.49 2.72 56.25 5.36 54.26 7.03 56.48 4.4 58.47 5.92 60.49 9.27 57.96 10.94 60.19 4.86 64.77 4.86 64.77"/></g><path class="d" d="M12.44,54.67c.47.62.94.64,1.36.33s.54-.79.07-1.41l-.77-1-.69.51L11,51.15l3.41-2.57,4.34,5.75-1.4,1.05-.8-.25a3.61,3.61,0,0,1-1.46,2.23c-2.71,2-4.19,1.17-7.27-2.91-2.94-3.91-3.08-6.06-.45-8.05,1.46-1.1,3.19-1.54,4.64-.6a6.65,6.65,0,0,1,1.53,1.61l-2.74,2.06-.45-.61c-.47-.62-1-.64-1.37-.32s-.53.78-.06,1.4l3.56,4.73Z"/><polygon class="d" points="20.3 53.13 12.5 42.78 15.23 40.72 23.03 51.08 20.3 53.13 20.3 53.13"/><path class="d" d="M26.19,39.34c.88-.66,1.15-1.12.28-2.27-.74-1-1.15-1-2.17-.24l1.89,2.51Zm1.86,7.95-7.8-10.35,3.07-2.32c2.22-1.67,3.93-1.78,5.75.62s1.55,3.79-.95,5.67l-.48.36,3.05,4-2.64,2Z"/><polygon class="d" points="35.3 41.83 27.5 31.48 33.42 27.02 35.03 29.15 31.84 31.55 33.17 33.31 35.8 31.32 37.47 33.55 34.84 35.53 36.36 37.55 39.71 35.02 41.38 37.25 35.3 41.83 35.3 41.83"/><path class="d" d="M42.88,31.73c.47.62.95.65,1.37.33s.53-.79.06-1.41l-.77-1-.68.51L41.4,28.21l3.42-2.57,4.33,5.75-1.39,1L47,32.19a3.57,3.57,0,0,1-1.46,2.23c-2.71,2-4.19,1.17-7.26-2.91-2.95-3.91-3.09-6.06-.46-8,1.47-1.1,3.2-1.54,4.65-.6a6.47,6.47,0,0,1,1.52,1.61l-2.73,2.06-.46-.61c-.47-.62-.94-.64-1.37-.32s-.53.78-.06,1.4l3.56,4.73Z"/><polygon class="d" points="50.74 30.19 42.94 19.84 45.67 17.78 53.48 28.14 50.74 30.19 50.74 30.19"/><path class="d" d="M56.63,16.4c.88-.66,1.15-1.12.28-2.27-.74-1-1.15-1-2.17-.24l1.89,2.51Zm1.86,8L50.69,14l3.08-2.32C56,10,57.7,9.9,59.51,12.31s1.55,3.78-1,5.66l-.46.36,3,4-2.64,2Z"/><g class="c"><polygon class="d" points="65.75 18.89 57.94 8.54 63.86 4.08 65.47 6.21 62.28 8.61 63.61 10.37 66.24 8.38 67.92 10.61 65.28 12.59 66.8 14.61 70.15 12.09 71.82 14.31 65.75 18.89 65.75 18.89"/><path class="d" d="M73.32,8.79c.47.62,1,.64,1.37.33s.53-.79.06-1.41l-.77-1-.68.51L71.84,5.27,75.26,2.7,79.6,8.45,78.19,9.51l-.8-.26a3.59,3.59,0,0,1-1.45,2.23c-2.72,2-4.2,1.17-7.27-2.91-2.94-3.91-3.09-6.06-.46-8,1.47-1.1,3.2-1.55,4.65-.6a6.47,6.47,0,0,1,1.52,1.61L71.65,3.59,71.19,3c-.47-.62-1-.64-1.37-.32s-.53.78-.06,1.4l3.56,4.73Z"/><polygon class="d" points="81.19 7.25 73.38 -3.1 76.11 -5.16 83.92 5.2 81.19 7.25 81.19 7.25"/><path class="d" d="M87.07-6.54c.88-.66,1.15-1.12.28-2.27-.74-1-1.14-1-2.17-.24l1.89,2.51Zm1.87,8L81.13-8.94l3.08-2.32c2.21-1.66,3.93-1.78,5.75.63S91.5-6.85,89-5l-.47.36,3,4-2.63,2Z"/><polygon class="d" points="0.18 90.23 -7.62 79.88 -1.7 75.42 -0.09 77.55 -3.28 79.95 -1.96 81.71 0.68 79.73 2.35 81.95 -0.28 83.93 1.24 85.95 4.59 83.43 6.26 85.65 0.18 90.23 0.18 90.23"/></g><path class="d" d="M7.76,80.13c.47.62.94.65,1.37.33s.53-.79.06-1.41l-.77-1-.68.51L6.28,76.61,9.7,74,14,79.79l-1.4,1.06-.8-.26a3.57,3.57,0,0,1-1.46,2.23C7.66,84.87,6.18,84,3.11,79.91.16,76,0,73.85,2.65,71.86c1.47-1.1,3.2-1.54,4.65-.6a6.47,6.47,0,0,1,1.52,1.61L6.08,74.93l-.45-.61c-.47-.61-.94-.64-1.37-.32s-.53.78-.06,1.4l3.56,4.73Z"/><polygon class="d" points="15.62 78.59 7.82 68.24 10.55 66.18 18.35 76.54 15.62 78.59 15.62 78.59"/><path class="d" d="M21.51,64.8c.88-.66,1.15-1.12.28-2.27-.74-1-1.15-1-2.17-.24l1.89,2.51Zm1.86,8L15.57,62.4l3.08-2.32c2.21-1.66,3.93-1.78,5.74.63s1.55,3.78-.95,5.67l-.47.35,3,4-2.64,2Z"/><polygon class="d" points="30.62 67.29 22.82 56.94 28.74 52.48 30.35 54.61 27.16 57.01 28.49 58.77 31.12 56.79 32.8 59.01 30.16 60.99 31.68 63.01 35.03 60.49 36.7 62.71 30.62 67.29 30.62 67.29"/><path class="d" d="M38.21,57.19c.46.62.94.65,1.36.33s.53-.79.07-1.41l-.78-1-.68.51-1.46-1.93,3.42-2.57,4.34,5.75-1.4,1-.81-.25a3.59,3.59,0,0,1-1.45,2.23c-2.72,2-4.19,1.17-7.27-2.91-2.95-3.91-3.09-6.06-.45-8,1.46-1.1,3.19-1.54,4.64-.6a6.47,6.47,0,0,1,1.52,1.61L36.53,52l-.46-.61c-.47-.61-.94-.64-1.36-.32s-.54.78-.07,1.4l3.57,4.73Z"/><polygon class="d" points="46.06 55.66 38.26 45.3 40.99 43.24 48.8 53.6 46.06 55.66 46.06 55.66"/><path class="d" d="M52,41.86c.88-.66,1.15-1.12.28-2.27-.74-1-1.14-1-2.17-.24L52,41.86Zm1.87,8L46,39.46l3.08-2.32c2.21-1.66,3.93-1.78,5.74.63s1.55,3.78-.95,5.67l-.47.35,3,4-2.63,2Z"/><polygon class="d" points="61.07 44.35 53.26 34 59.18 29.54 60.79 31.67 57.6 34.08 58.93 35.83 61.56 33.85 63.24 36.07 60.6 38.05 62.12 40.07 65.47 37.55 67.15 39.77 61.07 44.35 61.07 44.35"/><path class="d" d="M68.65,34.25c.46.62.94.65,1.36.33s.53-.78.07-1.41l-.77-1-.69.52-1.46-1.94,3.42-2.57,4.34,5.76-1.4,1-.81-.26a3.59,3.59,0,0,1-1.45,2.23C68.54,39,67.07,38.11,64,34c-2.94-3.91-3.09-6.06-.45-8,1.46-1.11,3.19-1.55,4.64-.61A6.65,6.65,0,0,1,69.7,27L67,29.05l-.46-.61c-.47-.61-.94-.64-1.37-.32s-.53.78-.06,1.4l3.57,4.73Z"/><polygon class="d" points="76.51 32.72 68.71 22.36 71.44 20.3 79.24 30.66 76.51 32.72 76.51 32.72"/><path class="d" d="M82.39,18.92c.88-.66,1.15-1.12.29-2.27-.74-1-1.15-1-2.17-.24l1.88,2.51Zm1.87,8-7.8-10.35,3.07-2.32c2.21-1.66,3.93-1.78,5.75.63s1.54,3.78-1,5.67l-.47.35,3,4-2.63,2Z"/><polygon class="d" points="91.51 21.41 83.71 11.06 89.63 6.6 91.23 8.73 88.05 11.13 89.37 12.89 92.01 10.91 93.68 13.13 91.05 15.11 92.57 17.13 95.92 14.61 97.59 16.83 91.51 21.41 91.51 21.41"/><g class="c"><path class="d" d="M99.09,11.31c.47.62.94.65,1.37.33s.53-.78.06-1.41l-.77-1-.69.52L97.61,7.79,101,5.22,105.36,11,104,12l-.8-.26A3.61,3.61,0,0,1,101.7,14c-2.71,2.05-4.19,1.17-7.26-2.91-3-3.91-3.09-6.06-.46-8,1.46-1.11,3.19-1.55,4.64-.61a6.65,6.65,0,0,1,1.53,1.61L97.41,6.11,97,5.5c-.47-.61-.95-.64-1.37-.32s-.53.78-.07,1.4l3.57,4.73Z"/><polygon class="d" points="106.95 9.78 99.15 -0.58 101.88 -2.64 109.68 7.72 106.95 9.78 106.95 9.78"/><path class="d" d="M112.84-4c.88-.66,1.15-1.11.28-2.27-.74-1-1.15-1-2.17-.24L112.84-4Zm1.86,8L106.9-6.42,110-8.74c2.21-1.66,3.93-1.78,5.75.63s1.55,3.78-1,5.67l-.47.35,3,4-2.64,2Z"/><polygon class="d" points="-4.5 115.69 -12.3 105.34 -6.38 100.88 -4.77 103.01 -7.96 105.42 -6.63 107.17 -4 105.19 -2.33 107.41 -4.96 109.4 -3.44 111.41 -0.09 108.89 1.58 111.11 -4.5 115.69 -4.5 115.69"/><path class="d" d="M3.08,105.6c.47.61,1,.64,1.37.32s.53-.78.06-1.4l-.77-1-.68.52L1.6,102.08,5,99.5l4.33,5.76-1.39,1-.81-.25a3.6,3.6,0,0,1-1.45,2.22c-2.72,2-4.2,1.17-7.27-2.91-2.95-3.9-3.09-6.06-.45-8,1.46-1.1,3.19-1.55,4.64-.61a6.65,6.65,0,0,1,1.52,1.61l-2.73,2.06L1,99.79c-.47-.62-.94-.65-1.37-.33s-.53.79-.06,1.41l3.56,4.73Z"/></g><polygon class="d" points="10.95 104.06 3.14 93.7 5.88 91.64 13.68 102 10.95 104.06 10.95 104.06"/><path class="d" d="M16.83,90.26c.88-.66,1.15-1.11.28-2.27-.74-1-1.14-1-2.17-.24l1.89,2.51Zm1.87,8L10.89,87.86,14,85.55c2.21-1.67,3.93-1.79,5.74.62s1.55,3.78-.95,5.67l-.47.35,3,4-2.63,2Z"/><polygon class="d" points="25.95 92.75 18.14 82.4 24.06 77.94 25.67 80.07 22.48 82.47 23.81 84.23 26.45 82.25 28.12 84.47 25.48 86.46 27 88.47 30.35 85.95 32.03 88.17 25.95 92.75 25.95 92.75"/><path class="d" d="M33.53,82.65c.46.62.94.65,1.36.33s.54-.78.07-1.4l-.77-1-.69.52-1.45-1.94,3.41-2.57,4.34,5.75-1.4,1.06-.8-.25a3.66,3.66,0,0,1-1.46,2.22c-2.72,2-4.19,1.17-7.27-2.91-2.94-3.9-3.09-6.06-.45-8,1.46-1.11,3.19-1.55,4.64-.61a6.65,6.65,0,0,1,1.52,1.61l-2.73,2.06-.46-.6c-.46-.62-.94-.65-1.36-.33s-.53.79-.07,1.41l3.57,4.72Z"/><polygon class="d" points="41.39 81.12 33.59 70.76 36.32 68.7 44.12 79.06 41.39 81.12 41.39 81.12"/><path class="d" d="M47.28,67.32c.87-.66,1.14-1.11.27-2.27-.73-1-1.14-1-2.17-.24l1.9,2.51Zm1.86,8-7.8-10.36,3.07-2.31c2.21-1.67,3.93-1.79,5.75.62s1.55,3.78-1,5.67l-.47.35,3,4-2.63,2Z"/><polygon class="d" points="56.39 69.81 48.59 59.46 54.51 55 56.11 57.13 52.93 59.53 54.25 61.29 56.88 59.31 58.56 61.53 55.93 63.52 57.45 65.53 60.8 63.01 62.47 65.23 56.39 69.81 56.39 69.81"/><path class="d" d="M64,59.71c.47.62.94.65,1.37.33s.53-.79.06-1.4l-.77-1-.69.51-1.45-1.93,3.41-2.57,4.34,5.75-1.4,1.06-.8-.25a3.61,3.61,0,0,1-1.46,2.22c-2.72,2.05-4.19,1.17-7.27-2.91-2.94-3.91-3.08-6.06-.45-8,1.47-1.11,3.2-1.55,4.64-.61A6.65,6.65,0,0,1,65,52.45l-2.73,2.06-.45-.6c-.47-.62-1-.65-1.37-.33s-.53.79-.06,1.4L64,59.71Z"/><polygon class="d" points="71.83 58.18 64.03 47.82 66.76 45.77 74.56 56.12 71.83 58.18 71.83 58.18"/><path class="d" d="M77.72,44.38c.87-.66,1.14-1.11.28-2.27-.74-1-1.15-1-2.17-.24l1.89,2.51Zm1.86,8L71.78,42l3.07-2.31c2.21-1.67,3.94-1.79,5.75.62s1.55,3.78-1,5.67l-.47.35,3,4-2.64,2Z"/><polygon class="d" points="86.83 46.87 79.03 36.52 84.95 32.06 86.56 34.19 83.37 36.6 84.7 38.35 87.33 36.37 89 38.59 86.37 40.58 87.89 42.59 91.24 40.07 92.91 42.29 86.83 46.87 86.83 46.87"/><path class="d" d="M94.41,36.77c.47.63,1,.65,1.37.33s.53-.78.06-1.4l-.77-1-.68.52-1.46-1.94,3.41-2.57,4.34,5.76-1.4,1.05-.8-.25A3.57,3.57,0,0,1,97,39.46c-2.71,2-4.19,1.17-7.26-2.91-3-3.91-3.09-6.06-.46-8,1.47-1.11,3.2-1.55,4.64-.61a6.65,6.65,0,0,1,1.53,1.61l-2.73,2.06-.46-.6c-.47-.62-1-.65-1.37-.33s-.53.79-.06,1.4l3.56,4.73Z"/><polygon class="d" points="102.27 35.24 94.47 24.88 97.2 22.82 105 33.18 102.27 35.24 102.27 35.24"/><g class="c"><path class="d" d="M108.16,21.44c.88-.66,1.15-1.11.28-2.27-.74-1-1.15-1-2.17-.24l1.89,2.51Zm1.86,8L102.22,19l3.08-2.31c2.21-1.67,3.93-1.79,5.74.62s1.55,3.78-1,5.67l-.48.35,3,4-2.64,2Z"/><polygon class="d" points="117.27 23.93 109.47 13.58 115.39 9.12 117 11.25 113.81 13.66 115.14 15.41 117.77 13.43 119.44 15.65 116.81 17.64 118.33 19.65 121.68 17.13 123.35 19.35 117.27 23.93 117.27 23.93"/><path class="d" d="M124.85,13.83c.47.63,1,.65,1.37.33s.53-.78.06-1.4l-.77-1-.68.52-1.46-1.94,3.42-2.57,4.34,5.76-1.41,1.05-.8-.25a3.57,3.57,0,0,1-1.46,2.22c-2.71,2.05-4.19,1.17-7.26-2.91-2.94-3.91-3.09-6.06-.46-8,1.47-1.11,3.2-1.55,4.65-.61a6.85,6.85,0,0,1,1.52,1.61l-2.73,2.06-.46-.6c-.47-.62-.94-.65-1.37-.33s-.53.79-.06,1.4l3.56,4.73Z"/><polygon class="d" points="6.27 129.52 -1.53 119.17 1.2 117.11 9 127.46 6.27 129.52 6.27 129.52"/><path class="d" d="M12.15,115.73c.88-.67,1.16-1.12.29-2.27-.74-1-1.15-1-2.17-.25l1.88,2.52Zm1.87,8-7.8-10.35L9.29,111c2.21-1.67,3.93-1.79,5.75.62s1.55,3.78-1,5.67l-.47.36,3,4-2.63,2Z"/></g><polygon class="d" points="21.27 118.21 13.47 107.86 19.39 103.4 20.99 105.54 17.81 107.94 19.13 109.7 21.77 107.71 23.44 109.93 20.81 111.92 22.33 113.94 25.68 111.41 27.35 113.63 21.27 118.21 21.27 118.21"/><path class="d" d="M28.85,108.12c.47.62.94.64,1.37.33s.53-.79.06-1.41l-.77-1-.68.52-1.46-1.93L30.79,102l4.33,5.76-1.4,1-.8-.25a3.59,3.59,0,0,1-1.46,2.23c-2.71,2-4.19,1.17-7.27-2.92-2.94-3.9-3.08-6-.45-8,1.46-1.1,3.19-1.55,4.65-.61a6.74,6.74,0,0,1,1.52,1.62l-2.74,2-.45-.6c-.47-.62-.95-.64-1.37-.32s-.53.78-.06,1.4l3.56,4.73Z"/><polygon class="d" points="36.71 106.58 28.91 96.23 31.64 94.17 39.44 104.52 36.71 106.58 36.71 106.58"/><path class="d" d="M42.6,92.78c.88-.66,1.15-1.11.28-2.26-.74-1-1.15-1-2.17-.25l1.89,2.51Zm1.86,8-7.8-10.36,3.07-2.31c2.22-1.67,3.93-1.79,5.75.62s1.55,3.78-1,5.67l-.47.36,3.05,4-2.64,2Z"/><polygon class="d" points="51.71 95.27 43.91 84.92 49.83 80.46 51.44 82.6 48.25 85 49.58 86.76 52.21 84.77 53.88 86.99 51.25 88.98 52.77 91 56.12 88.47 57.79 90.69 51.71 95.27 51.71 95.27"/><path class="d" d="M59.29,85.18c.47.62,1,.64,1.37.32s.53-.78.06-1.4l-.77-1-.68.52-1.46-1.93,3.42-2.58,4.33,5.76-1.4,1-.8-.25a3.62,3.62,0,0,1-1.45,2.23c-2.72,2-4.2,1.16-7.27-2.92-3-3.9-3.09-6-.45-8,1.46-1.1,3.19-1.55,4.64-.61a6.74,6.74,0,0,1,1.52,1.62l-2.73,2-.46-.6c-.47-.62-.94-.64-1.37-.32s-.53.78-.06,1.4l3.56,4.73Z"/><polygon class="d" points="67.15 83.64 59.35 73.29 62.08 71.23 69.88 81.58 67.15 83.64 67.15 83.64"/><path class="d" d="M73,69.84c.88-.66,1.15-1.11.28-2.27-.74-1-1.14-1-2.17-.24L73,69.84Zm1.86,8L67.1,67.45l3.07-2.32c2.22-1.67,3.94-1.79,5.75.62s1.55,3.78-1,5.67l-.46.36,3,4-2.64,2Z"/><polygon class="d" points="82.15 72.33 74.35 61.98 80.27 57.52 81.88 59.66 78.69 62.06 80.02 63.81 82.65 61.83 84.33 64.05 81.69 66.04 83.21 68.06 86.56 65.53 88.23 67.75 82.15 72.33 82.15 72.33"/><path class="d" d="M89.74,62.24c.46.62.94.64,1.36.32s.53-.78.06-1.4l-.77-1-.68.52-1.46-1.93,3.42-2.58L96,61.9,94.61,63l-.81-.25a3.62,3.62,0,0,1-1.45,2.23c-2.72,2-4.19,1.16-7.27-2.91C82.14,58.11,82,56,84.63,54c1.46-1.1,3.19-1.55,4.64-.61A6.74,6.74,0,0,1,90.79,55L88.06,57l-.46-.61c-.47-.62-.94-.64-1.37-.33s-.53.79-.06,1.41l3.57,4.73Z"/><polygon class="d" points="97.6 60.7 89.79 50.35 92.52 48.29 100.32 58.64 97.6 60.7 97.6 60.7"/><path class="d" d="M103.48,46.9c.88-.66,1.15-1.11.28-2.26-.74-1-1.14-1-2.17-.25l1.89,2.51Zm1.86,8-7.8-10.35,3.08-2.32c2.21-1.67,3.93-1.79,5.75.62s1.54,3.78-1,5.67l-.47.35,3,4-2.64,2Z"/><g class="c"><polygon class="d" points="112.6 49.4 104.8 39.04 110.71 34.58 112.32 36.72 109.14 39.12 110.46 40.88 113.09 38.89 114.77 41.11 112.14 43.1 113.66 45.12 117 42.59 118.68 44.81 112.6 49.4 112.6 49.4"/><path class="d" d="M120.18,39.3c.46.62.94.64,1.36.32s.53-.78.07-1.4l-.77-1-.69.52-1.45-1.93,3.41-2.58L126.45,39l-1.4,1-.81-.25A3.58,3.58,0,0,1,122.79,42c-2.72,2-4.19,1.16-7.27-2.91-2.94-3.91-3.09-6.06-.45-8,1.46-1.1,3.19-1.55,4.64-.6A6.47,6.47,0,0,1,121.23,32L118.5,34.1l-.46-.61c-.46-.62-.94-.64-1.36-.32s-.54.78-.07,1.4l3.57,4.73Z"/><path class="d" d="M37.92,118.25c.88-.66,1.15-1.12.28-2.27-.74-1-1.15-1-2.17-.24l1.89,2.51Zm1.86,8L32,115.85l3.08-2.32c2.21-1.67,3.93-1.78,5.74.62s1.55,3.79-.95,5.67l-.48.36,3.05,4-2.64,2Z"/><polygon class="d" points="47.03 120.74 39.23 110.39 45.15 105.93 46.76 108.06 43.57 110.46 44.9 112.22 47.53 110.24 49.2 112.45 46.57 114.44 48.09 116.46 51.44 113.93 53.11 116.16 47.03 120.74 47.03 120.74"/></g><path class="d" d="M54.61,110.64c.47.62,1,.65,1.37.33s.53-.79.06-1.41l-.77-1-.68.51-1.46-1.93,3.42-2.57,4.33,5.75-1.39,1-.81-.25a3.57,3.57,0,0,1-1.46,2.23c-2.71,2-4.19,1.17-7.26-2.91-3-3.91-3.09-6.06-.46-8,1.47-1.1,3.2-1.54,4.65-.6a6.47,6.47,0,0,1,1.52,1.61l-2.73,2.06-.46-.61c-.47-.62-.94-.64-1.37-.32s-.53.78-.06,1.4l3.56,4.73Z"/><polygon class="d" points="62.47 109.1 54.67 98.75 57.4 96.69 65.2 107.04 62.47 109.1 62.47 109.1"/><path class="d" d="M68.36,95.31c.88-.66,1.15-1.12.28-2.27-.74-1-1.15-1-2.17-.24l1.89,2.51Zm1.87,8L62.42,92.91l3.08-2.32c2.21-1.67,3.93-1.79,5.74.62s1.55,3.79-.95,5.67l-.48.36,3,4-2.63,2Z"/><polygon class="d" points="77.47 97.8 69.67 87.44 75.59 82.98 77.2 85.12 74.01 87.52 75.34 89.28 77.97 87.3 79.65 89.52 77.01 91.5 78.53 93.52 81.88 90.99 83.56 93.22 77.47 97.8 77.47 97.8"/><path class="d" d="M85.06,87.7c.46.62.94.65,1.36.33s.54-.79.07-1.41l-.78-1-.68.51-1.45-1.93L87,81.61l4.33,5.75-1.39,1-.8-.25a3.65,3.65,0,0,1-1.46,2.23c-2.72,2-4.19,1.17-7.27-2.91-3-3.91-3.09-6.06-.45-8,1.46-1.1,3.19-1.55,4.64-.6a6.47,6.47,0,0,1,1.52,1.61L83.38,82.5l-.46-.61c-.46-.62-.94-.64-1.36-.32s-.53.78-.07,1.4l3.57,4.73Z"/><polygon class="d" points="92.91 86.16 85.11 75.81 87.85 73.75 95.65 84.1 92.91 86.16 92.91 86.16"/><path class="d" d="M98.81,72.37c.87-.67,1.14-1.12.27-2.27-.73-1-1.14-1-2.17-.24l1.9,2.51Zm1.86,7.95L92.87,70l3.07-2.32c2.21-1.66,3.93-1.79,5.74.62s1.56,3.79-1,5.68l-.47.35,3,4-2.63,2Z"/><g class="c"><polygon class="d" points="107.92 74.86 100.11 64.5 106.03 60.05 107.64 62.18 104.45 64.58 105.78 66.34 108.42 64.36 110.09 66.58 107.45 68.56 108.97 70.58 112.32 68.05 114 70.28 107.92 74.86 107.92 74.86"/><path class="d" d="M115.5,64.76c.47.62.94.64,1.36.33s.54-.79.07-1.41l-.78-1-.68.51L114,61.24l3.41-2.57,4.34,5.75-1.4,1.06-.8-.26a3.65,3.65,0,0,1-1.46,2.23c-2.72,2-4.19,1.17-7.27-2.91-2.94-3.91-3.09-6.06-.45-8.05,1.46-1.1,3.19-1.54,4.64-.6a6.47,6.47,0,0,1,1.52,1.61l-2.73,2.06-.46-.61c-.46-.62-.94-.64-1.36-.32s-.53.78-.06,1.4l3.56,4.73Z"/><polygon class="d" points="123.36 63.22 115.56 52.87 118.29 50.81 126.09 61.16 123.36 63.22 123.36 63.22"/><path class="d" d="M63.68,120.77c.88-.66,1.15-1.12.28-2.27-.74-1-1.15-1-2.17-.24l1.89,2.51Zm1.87,8-7.81-10.35,3.08-2.32c2.21-1.66,3.93-1.78,5.74.63s1.56,3.78-1,5.66l-.47.36,3,4-2.63,2Z"/><polygon class="d" points="72.8 123.26 65 112.91 70.92 108.45 72.52 110.58 69.33 112.98 70.66 114.74 73.3 112.75 74.97 114.98 72.33 116.96 73.85 118.98 77.2 116.46 78.88 118.68 72.8 123.26 72.8 123.26"/></g><path class="d" d="M80.38,113.16c.46.62.94.65,1.36.33s.54-.79.07-1.41l-.77-1-.68.51-1.46-1.93,3.41-2.57,4.34,5.75-1.4,1.06-.8-.26A3.61,3.61,0,0,1,83,115.85c-2.71,2.05-4.19,1.17-7.27-2.91-2.94-3.91-3.08-6.06-.45-8,1.46-1.1,3.19-1.54,4.64-.6a6.65,6.65,0,0,1,1.52,1.61L78.7,108l-.45-.61c-.47-.62-1-.64-1.37-.32s-.53.78-.07,1.4l3.57,4.73Z"/><polygon class="d" points="88.23 111.63 80.44 101.27 83.17 99.21 90.97 109.56 88.23 111.63 88.23 111.63"/><path class="d" d="M94.13,97.83c.87-.66,1.15-1.12.27-2.27-.73-1-1.14-1-2.17-.24l1.9,2.51Zm1.86,8-7.8-10.35,3.07-2.32c2.21-1.66,3.93-1.78,5.75.63s1.55,3.78-1,5.67l-.47.35,3,4-2.63,2Z"/><polygon class="d" points="103.24 100.32 95.44 89.97 101.36 85.51 102.96 87.64 99.78 90.04 101.1 91.8 103.74 89.82 105.41 92.04 102.78 94.02 104.3 96.04 107.65 93.52 109.32 95.74 103.24 100.32 103.24 100.32"/><g class="c"><path class="d" d="M110.82,90.22c.47.62,1,.65,1.37.33s.53-.78.06-1.41l-.77-1-.68.52-1.46-1.94,3.42-2.57,4.33,5.75-1.4,1.06-.8-.26a3.57,3.57,0,0,1-1.46,2.23c-2.71,2-4.19,1.17-7.27-2.91-2.94-3.91-3.08-6.06-.45-8,1.46-1.1,3.19-1.54,4.65-.6A6.47,6.47,0,0,1,111.87,83L109.14,85l-.45-.61c-.47-.62-1-.64-1.37-.32s-.53.78-.06,1.4l3.56,4.73Z"/><polygon class="d" points="118.68 88.69 110.88 78.33 113.61 76.27 121.41 86.63 118.68 88.69 118.68 88.69"/><path class="d" d="M124.57,74.89c.87-.66,1.15-1.12.28-2.27-.74-1-1.15-1-2.17-.24l1.89,2.51Zm1.86,8-7.8-10.35,3.07-2.32c2.22-1.66,3.94-1.78,5.75.63s1.55,3.78-1,5.66l-.46.36,3,4-2.64,2Z"/><path class="d" d="M91.21,122c.88-.66,1.15-1.11.28-2.26-.74-1-1.15-1-2.17-.25L91.21,122Zm1.87,8-7.8-10.36,3.07-2.31c2.21-1.67,3.93-1.79,5.74.62s1.56,3.78-1,5.67l-.47.35,3,4-2.63,2Z"/><polygon class="d" points="100.33 124.45 92.52 114.1 98.44 109.64 100.05 111.77 96.86 114.17 98.19 115.94 100.83 113.95 102.5 116.17 99.86 118.16 101.38 120.17 104.73 117.65 106.41 119.87 100.33 124.45 100.33 124.45"/></g><path class="d" d="M107.91,114.36c.46.62.94.64,1.36.32s.54-.78.07-1.4l-.78-1-.68.52-1.45-1.93,3.41-2.58,4.34,5.75-1.4,1.06-.8-.25a3.61,3.61,0,0,1-1.46,2.22c-2.71,2-4.19,1.17-7.27-2.91-2.94-3.91-3.09-6.06-.45-8,1.46-1.1,3.19-1.55,4.64-.61A6.74,6.74,0,0,1,109,107.1l-2.73,2.05-.45-.6c-.47-.62-1-.65-1.37-.33s-.53.79-.07,1.41l3.57,4.73Z"/><g class="c"><polygon class="d" points="115.77 112.82 107.97 102.46 110.7 100.41 118.5 110.76 115.77 112.82 115.77 112.82"/><path class="d" d="M121.66,99c.87-.66,1.15-1.11.27-2.27-.73-1-1.14-1-2.16-.24L121.66,99Zm1.86,8-7.8-10.36,3.07-2.31c2.22-1.67,3.93-1.79,5.75.62s1.55,3.78-1,5.67l-.47.35,3,4-2.64,2Z"/></g><g class="e"><path class="f" d="M151.52,93.15l-25.75-7.49-7.74,18L94.53,90.79l-14.64,20.5L65.48,85.66,39.73,93.15,41.31,65,14.86,58.72,27.89,35,6,23.07,31.46,7.61,14.86-15.83l26.45-4.42L39.73-47l25.75,7.49,10.2-24.8L95.63-46.41l19.94-17.92,10.2,24.8L151.52-47l-1.58,26.77,26.46,4.42-13,23.44,21.91,15.46L163.36,38.53,176.4,62l-26.46,4.41,1.58,26.77ZM173,40.73l25-17.66L173,5.4,187.9-21.38l-30.21-5.05L159.48-57l-29.41,8.56L118.41-76.8,95.62-56.32,72.83-76.8,61.18-48.46,31.76-57l1.8,30.59L3.34-21.38,18.23,5.4l-25,17.67,2.07,1.46L18.15,40.68,3.41,63.86,33.57,74.53l-1.83,28.73,26.32-8.75L79.91,121,95,100.64l26,15,9-21,29.43,8.58-1.8-30.6,30.23-5.06L173,40.73Z"/><path class="b" d="M80.06,108.29l14-19.6,23.2,12.65,7.61-17.63L149.78,91,148.25,65l25.62-4.28L161.24,38l21.23-15-21.23-15,12.63-22.7L148.24-18.9l1.54-25.94-25,7.26-9.87-24L95.62-44.25,76.3-61.61l-9.88,24-25-7.27L43-18.9,17.65-14.66,33.78,8.08,9.21,23,30.08,34.31,17.28,57.64,43,63.79,41.47,91l24.79-7.21,13.8,24.53ZM64.7,87.57,38,95.34l1.63-29L12.43,59.8,25.7,35.59,5.2,24.49,6,23.06l.83,1.39L6,23.06,5.2,24.49,2.73,23.15l26.41-16L12.05-17l27.56-4.6L38-49.21l26.55,7.72L75.05-67,95.62-48.58l20.56-18.48L126.7-41.49l26.56-7.72L151.64-21.6,178.91-17,165.46,7.12l22.61,15.94L165.46,39l13.45,24.17-27.27,4.55,1.62,27.61-26.58-7.73-7.88,18.26L95,92.89,79.73,114.3l-15-26.73Z"/><path class="f" d="M40.64,114.68s10.61-13.5,12.89-16.11S57,94.43,57,94.43s16.12-1.88,28-9.57,23.38-25.81,23.52-29.33-2-8.12-4.58-9.49a28.68,28.68,0,0,0-4-1.82s2.28-2.85,0-7.6-3.5-5.12-6.54-5.73l-3-.6s2.28-2.3-1.22-6.44-7.33-5.8-8.83-5.5l-1.53.31a56.17,56.17,0,0,0-6.24-5c-4.42-3.23-7-4-9.13-2.75S55.18,17,49.71,17.66,35.42,23.81,33,30.25,26.65,49,26.06,56.33s-2.11,10.42-3.62,12-18.09,13.6-19.61,16,0,33.24,0,33.24l35.61,0,2.2-2.86Z"/><path class="b" d="M104.25,58.11c-1.27.65-3.8,3.81-5,4.78S91,71.48,91,71.48,89.22,75.12,86,73.22s-3.65-3-2.86-5.71,4.27-6.82,7-10.16a39.67,39.67,0,0,1,8.07-7.47,13.9,13.9,0,0,1,3.49-1.59s4.1,2.38,4.74,4.28-.92,4.91-2.19,5.54ZM69.65,46.45s-1.9,3.5-5.85.49-3.5-3.16-2.09-5.55a13.69,13.69,0,0,1,2.86-3.49,8.84,8.84,0,0,0,2.21,3.8,18.92,18.92,0,0,0,3.82,2.85l-.95,1.9ZM87.69,29a7.17,7.17,0,0,1-3.35,3.85,5.58,5.58,0,0,1-1.31.49l-.66-.72c-.11-.1-4.15-3.27-4.15-3.27l-3.5-3.17c1-1.55,2.57-3.64,3.45-4.13a12.79,12.79,0,0,0,2.1-1.43s.53-1.28,4.5,1.71S88,28,87.69,29ZM71,22.09a32.42,32.42,0,0,0-6.44-3.22c-3.22-1.08-2.79-1.93-2.79-1.93s1.5-3.65,2.79-4.08,4.93,0,7.3,2.37,2.14,2.35,1.71,3.86-2.57,3-2.57,3Zm34,24.13a30,30,0,0,0-4.13-1.89s2.38-2.95,0-7.86-3.66-5.3-6.83-5.93l-3.17-.62s2.37-2.38-1.28-6.66-7.64-6-9.21-5.69l-1.59.32a58,58,0,0,0-6.51-5.21C67.68,9.34,65,8.56,62.77,9.84s-8.57,6.35-14.27,7-14.89,6.37-17.43,13-6.62,19.36-7.23,27-2.2,10.79-3.77,12.38S4.36,80.28,2.79,82.82c-.78,1.26-1.06,9.59-1.13,17.7C13.26,92.75,28,82.77,29.13,81.44A22.54,22.54,0,0,0,32,77.31a10.33,10.33,0,0,1-3.82-5.39,6.69,6.69,0,0,1,1.1-5.87,31.19,31.19,0,0,1,.15-8.72c.78-4.29,2.2-11.11,2.5-12.06S35.53,35.58,37,31.93,42,25.27,45,23.52s7.28-2.24,11.56-3.37,11,1.73,13.34,4.11a12.32,12.32,0,0,0,3.75,2.56l3.68,3.34,4.23,3.33,0,0h-.15c.61.62,1.16,1.22,1.67,1.79,1,1.26,1.75,2.4,1.7,2.94l.2,2.09,1-2a5.52,5.52,0,0,0-.45-1.25,13.38,13.38,0,0,1,1-1.33c2.21-2.54,3.64-4,3.64-4s4.74.84,7,4,1.08,4.07,1.08,4.07S94.4,45.4,92.49,47s-7.29,7.72-7.29,7.72-4.1,6-7.74,4.89-5.73-4.44-3.83-7.28,3.64-5.57,3.64-5.57,5.83-.6,7.09-3.14a2.6,2.6,0,0,0,.34-2.21,12.54,12.54,0,0,1-1.58,1.37c-1.58,1.28-2.85,0-8.08-3.62a29.46,29.46,0,0,1-8.28-9.49s-.63.31-4.59,1.74S53,29.53,53,29.53L51.55,31c-1.44,1.43-5.08,0-5.08,0a51.53,51.53,0,0,1-2,6.19c-.42,1.11-.68,1.74-.84,2.09.19.33.73,1.22,2.28,3.78,2.39,3.95.81,12.52.81,12.52a14.6,14.6,0,0,1,5.67,2,3.11,3.11,0,0,1,.46.41,20.13,20.13,0,0,1,.2,2.91,26,26,0,0,1-.45,4.72,52.72,52.72,0,0,1-1.93,7.77,12.55,12.55,0,0,1-.81,1.93l1.52,1c.08-.14,1.54-2.53,3-10.32a28.73,28.73,0,0,0,.48-5.05,19.68,19.68,0,0,0-.59-5,12.62,12.62,0,0,1,4.37-2.79s1.9.31,5.88,1.41,12.85,9.34,14,11.71S77,69,74.62,69.12s-5.22,7.16-2.2,9.52-.33,5.8-1,6.76-2.62,1-5.15,2.58-23.17,2.57-23.17,2.57,4.1,7,1.58,12.1c-1.24,2.49-9.45,9.29-17.51,15.6l10.88.59,1-1.59s11.05-14,13.43-16.68,3.64-4.28,3.64-4.28,16.82-1.94,29.16-9.9S109.65,59.68,109.8,56s-2.08-8.4-4.79-9.82Z"/></g><path class="b" d="M117.6,117.6H2.4V2.4H117.6V117.6ZM0,0V120H120V0Z"/><polygon class="b" points="120 120 0 120 0 100.8 120 100.8 120 120 120 120"/><polygon class="f" points="33.27 103.67 36.06 103.67 33.7 116.6 30.71 116.6 27.96 103.67 30.86 103.67 32.12 111.13 32.16 111.13 33.27 103.67 33.27 103.67"/><polygon class="f" points="36.99 116.6 36.99 103.67 40.02 103.67 40.02 116.6 36.99 116.6 36.99 116.6"/><path class="f" d="M44.72,113.07c0,.78.32,1.08.79,1.08s.79-.3.79-1.08V107.2c0-.77-.32-1.08-.79-1.08s-.79.31-.79,1.08v5.87Zm-3-6.74c.43-2.09,1.83-2.88,3.76-2.88s3.33.79,3.77,2.88a21.72,21.72,0,0,1,.2,3.81,21.66,21.66,0,0,1-.2,3.8c-.44,2.09-1.84,2.88-3.77,2.88s-3.33-.79-3.76-2.88a20.67,20.67,0,0,1-.2-3.8,20.73,20.73,0,0,1,.2-3.81Z"/><polygon class="f" points="50.76 116.6 50.76 103.67 53.79 103.67 53.79 113.83 57.68 113.83 57.68 116.6 50.76 116.6 50.76 116.6"/><polygon class="f" points="58.76 116.6 58.76 103.67 65.31 103.67 65.31 106.33 61.78 106.33 61.78 108.53 64.7 108.53 64.7 111.31 61.78 111.31 61.78 113.83 65.49 113.83 65.49 116.6 58.76 116.6 58.76 116.6"/><polygon class="f" points="66.75 116.6 66.75 103.67 69.65 103.67 71.61 109.4 71.65 109.4 71.65 103.67 74.24 103.67 74.24 116.6 71.43 116.6 69.38 109.9 69.34 109.9 69.34 116.6 66.75 116.6 66.75 116.6"/><path class="f" d="M78.67,113.07c0,.78.32,1.08.79,1.08s.83-.3.83-1.08V110.8h3a19.12,19.12,0,0,1-.24,3.39c-.39,1.87-2,2.63-3.73,2.63-3.06,0-4-1.87-4-6.68s.9-6.69,4-6.69c1.78,0,3.28.74,3.73,2.56a16.13,16.13,0,0,1,.24,3.1h-3V107.2c0-.77-.36-1.08-.83-1.08s-.79.31-.79,1.08v5.87Z"/><polygon class="f" points="84.75 116.6 84.75 103.67 91.31 103.67 91.31 106.33 87.77 106.33 87.77 108.53 90.69 108.53 90.69 111.31 87.77 111.31 87.77 113.83 91.49 113.83 91.49 116.6 84.75 116.6 84.75 116.6"/><path class="f" d="M115.2,11.7h-1.12V6.27h0l-1.91,5.43h-.91l-1.82-5.43h0V11.7h-1.12V4.8H110l1.72,5.14h0l1.67-5.14h1.74v6.9Zm-7.73-6.9v.89h-1.9v6h-1.12v-6h-1.9V4.8Z"/></svg>